<?xml version="1.0" standalone="no"?>
<!DOCTYPE svg PUBLIC "-//W3C//DTD SVG 20010904//EN"
 "http://www.w3.org/TR/2001/REC-SVG-20010904/DTD/svg10.dtd">
<svg version="1.0" xmlns="http://www.w3.org/2000/svg"
 width="300.000000pt" height="322.000000pt" viewBox="0 0 300.000000 322.000000"
 preserveAspectRatio="xMidYMid meet">
<metadata>
Created by potrace 1.10, written by Peter Selinger 2001-2011
</metadata>
<g transform="translate(0.000000,322.000000) scale(0.100000,-0.100000)"
fill="#000000" stroke="none">
<path d="M1955 2903 c-48 -6 -213 -50 -294 -78 -97 -33 -151 -65 -228 -137
-34 -32 -65 -58 -68 -58 -3 0 -10 11 -15 25 -9 24 -11 25 -33 10 -13 -8 -26
-12 -30 -9 -7 7 -55 -39 -79 -77 -16 -25 -15 -39 4 -39 4 0 8 9 8 19 0 22 20
22 46 1 16 -14 16 -13 5 8 -6 12 -16 22 -21 22 -18 0 -10 16 13 29 40 21 63
20 115 -5 28 -13 55 -24 59 -23 4 1 22 -3 38 -10 30 -12 69 -24 215 -62 79
-20 156 -48 230 -82 25 -12 53 -23 63 -24 10 -2 33 -18 52 -37 19 -19 43 -37
55 -41 11 -3 20 -10 20 -15 0 -4 8 -11 18 -14 9 -3 -3 12 -28 34 -51 45 -35
55 24 15 20 -14 62 -33 92 -44 30 -10 57 -21 60 -24 4 -3 17 1 30 10 21 13 24
13 24 0 0 -8 11 -18 25 -21 14 -4 25 -13 25 -22 0 -8 7 -17 15 -20 8 -4 15
-16 15 -29 0 -12 8 -29 17 -36 15 -12 16 -12 9 6 -5 11 -12 33 -17 49 -5 16
-12 32 -17 35 -34 25 -52 67 -53 125 -1 60 -1 61 -15 31 -7 -16 -13 -43 -11
-60 1 -21 -2 -30 -13 -30 -8 0 -18 -4 -22 -9 -3 -5 -23 -2 -45 7 -51 20 -201
92 -233 111 -14 8 -59 27 -100 42 -41 15 -80 31 -85 35 -6 4 -45 17 -88 28
-43 11 -81 22 -85 25 -4 2 -27 7 -52 11 -24 4 -56 13 -72 21 -15 8 -33 14 -41
14 -7 0 -22 6 -33 14 -19 14 -19 15 3 35 12 12 29 21 38 21 8 0 15 5 15 11 0
6 14 1 31 -11 16 -12 33 -20 36 -16 3 3 -2 8 -11 12 -20 8 -21 24 -1 24 20 0
65 22 65 32 0 11 -28 10 -32 -1 -4 -13 -56 -22 -63 -11 -6 9 116 80 137 79 7
0 1 -5 -14 -11 -16 -5 -28 -14 -28 -18 0 -14 19 -22 32 -13 7 4 26 6 43 5 27
-2 28 -1 13 11 -18 14 -24 36 -10 38 4 0 18 2 32 3 14 2 59 13 100 25 108 33
140 37 140 18 0 -8 -6 -18 -12 -20 -8 -4 -7 -6 4 -6 9 -1 25 -4 35 -7 15 -5
15 -4 3 5 -24 17 2 33 56 34 65 2 152 -41 223 -110 30 -29 56 -53 57 -53 2 0
4 7 6 15 2 12 19 4 70 -30 64 -43 67 -46 79 -102 6 -32 20 -91 31 -132 19 -74
37 -226 38 -314 0 -46 -2 -49 -35 -63 -43 -18 -62 -9 -84 37 -9 18 -23 35 -31
37 -13 5 -13 3 -1 -11 12 -15 11 -17 -5 -17 -16 0 -17 -2 -4 -10 12 -7 12 -10
1 -10 -9 0 -11 -8 -7 -26 4 -14 3 -23 -1 -21 -10 7 -9 -103 1 -125 14 -30 25
-20 19 17 -4 28 0 42 21 70 29 38 46 43 70 20 8 -8 18 -15 22 -15 4 0 12 -7
18 -16 11 -14 13 -14 25 -1 10 13 7 16 -19 22 -36 8 -32 20 9 28 15 3 30 12
33 19 2 7 1 69 -2 138 -6 110 -30 252 -71 411 -13 50 -60 93 -135 123 -35 14
-85 42 -111 62 -61 47 -134 79 -208 93 -59 11 -65 11 -120 4z"/>
<path d="M2355 2671 c4 -14 16 -34 27 -45 11 -12 17 -29 14 -41 -4 -15 3 -25
24 -37 34 -19 50 -65 29 -82 -15 -12 -59 -72 -59 -81 0 -15 21 -1 32 22 25 50
40 41 37 -23 -2 -40 1 -59 10 -62 10 -3 12 19 8 100 l-4 104 -63 85 c-34 46
-59 73 -55 60z"/>
<path d="M2100 2650 c0 -5 27 -43 60 -84 33 -41 60 -80 60 -88 1 -7 7 -24 16
-38 14 -24 14 -24 8 15 -4 22 -11 46 -17 54 -6 7 -16 21 -22 31 -34 57 -67
101 -85 110 -14 7 -20 7 -20 0z"/>
<path d="M2305 2639 c-4 -6 -3 -14 2 -18 5 -3 15 -15 21 -26 11 -19 11 -18 12
6 0 31 -24 57 -35 38z"/>
<path d="M1301 2558 c-13 -20 -11 -25 20 -51 19 -15 33 -34 31 -41 -3 -19 25
-28 32 -10 6 16 -20 46 -48 57 -11 4 -15 13 -12 24 9 30 -8 45 -23 21z"/>
<path d="M1965 2556 c22 -14 51 -33 65 -43 31 -23 63 -36 55 -23 -3 6 4 10 17
10 18 0 20 -2 8 -10 -8 -5 -10 -10 -5 -10 6 0 15 -10 20 -22 6 -12 17 -24 25
-26 12 -4 11 -1 -3 15 -9 11 -14 23 -11 26 11 10 -16 37 -37 37 -10 0 -22 6
-26 13 -15 24 -68 51 -108 54 l-40 3 40 -24z"/>
<path d="M1179 2533 c-1 -5 0 -16 1 -26 1 -10 -10 -27 -24 -38 -49 -39 -75
-116 -36 -106 10 3 21 0 23 -7 3 -6 8 6 12 27 4 20 11 40 17 43 5 3 6 14 3 25
-7 22 5 25 24 7 11 -11 12 -10 7 0 -4 7 -3 18 2 25 11 14 -2 57 -18 57 -5 0
-11 -3 -11 -7z"/>
<path d="M1260 2471 c0 -5 -10 -7 -22 -3 -21 5 -22 4 -9 -11 7 -9 20 -17 27
-17 8 0 14 -4 14 -10 0 -5 6 -10 14 -10 8 0 16 -6 19 -14 7 -19 47 -28 47 -11
0 8 -10 15 -22 17 -13 2 -22 9 -21 16 2 6 -5 21 -14 32 -18 21 -33 26 -33 11z"/>
<path d="M1391 2438 c-10 -16 -10 -22 -1 -28 6 -4 11 -11 9 -16 -3 -12 48 -30
58 -20 12 11 -17 24 -41 18 -20 -5 -20 -4 -4 14 13 15 14 22 4 36 -11 15 -13
15 -25 -4z"/>
<path d="M1047 2319 c-141 -63 -239 -133 -353 -250 -123 -127 -204 -272 -248
-444 -21 -83 -36 -248 -29 -321 l6 -61 -39 -6 c-22 -4 -51 -7 -66 -7 -35 0
-35 -6 -1 -102 l26 -77 -25 -96 c-13 -53 -22 -97 -19 -99 6 -4 89 7 184 23
l48 8 51 -75 c250 -370 682 -553 1103 -466 269 56 531 235 689 472 34 52 53
71 65 68 32 -10 213 -27 219 -22 3 4 -6 46 -20 94 l-25 87 29 84 c15 47 28 88
28 92 0 4 -30 11 -67 15 l-68 9 3 80 c4 104 -14 239 -45 340 -36 116 -123 290
-123 247 0 -6 -10 -8 -22 -4 -20 5 -19 2 10 -34 78 -98 131 -279 139 -483 6
-132 5 -143 -11 -140 -15 4 -18 21 -21 144 -2 116 -7 155 -29 230 -27 89 -93
234 -124 268 -17 20 -40 24 -24 5 20 -26 61 -106 57 -112 -3 -3 -2 -4 2 -1 4
3 18 -20 31 -51 42 -102 63 -202 69 -341 6 -131 6 -133 -16 -133 -20 0 -21 4
-21 114 0 65 -4 117 -10 121 -5 3 -37 1 -70 -6 -33 -6 -63 -10 -65 -7 -3 2 -8
18 -11 35 l-6 30 66 13 c36 7 69 16 72 21 14 23 -68 212 -127 294 -35 49 -76
63 -64 23 4 -13 12 -27 19 -33 26 -21 116 -229 116 -267 0 -34 -17 -10 -41 57
-12 36 -26 65 -31 65 -5 0 -1 -17 8 -37 20 -44 23 -85 9 -90 -6 -2 -17 14 -24
34 -26 72 -55 133 -63 133 -5 0 -6 5 -3 10 3 6 0 13 -9 16 -8 3 -18 24 -21 46
-6 32 -4 43 9 50 15 8 23 38 10 38 -3 0 -19 -13 -37 -30 l-32 -29 -28 27 c-28
27 -28 27 -8 41 21 13 31 38 11 26 -14 -9 -72 4 -65 15 3 4 -16 13 -41 19 -28
7 -44 16 -41 24 2 7 12 10 22 9 27 -5 105 8 105 17 0 4 -13 6 -30 3 -16 -2
-44 1 -62 8 -18 6 -54 13 -80 16 l-47 4 11 -32 c6 -18 13 -27 16 -20 8 24 22
0 22 -39 0 -21 -2 -39 -3 -39 -2 0 -45 20 -94 45 -111 56 -208 79 -333 79 -73
0 -111 -5 -165 -23 -195 -65 -368 -200 -443 -347 -39 -76 -63 -184 -69 -302
l-6 -113 -36 3 -36 3 -3 56 -3 57 -37 6 c-20 3 -56 6 -79 6 l-43 0 0 -74 c0
-54 -4 -75 -14 -79 -23 -9 -26 2 -26 87 0 179 47 366 122 492 84 142 173 235
313 327 90 60 222 120 231 106 4 -8 9 -7 15 2 6 10 9 10 9 2 0 -7 7 -10 15 -7
25 10 17 21 -30 44 -25 12 -45 26 -45 31 0 13 -9 11 -83 -22z m100 -15 c2 -6
-31 -25 -73 -44 -276 -121 -488 -362 -561 -637 -22 -81 -26 -121 -27 -236 -1
-116 -3 -137 -16 -134 -21 4 -19 237 4 337 66 290 269 540 548 675 40 20 80
40 88 45 18 10 32 8 37 -6z m383 -399 l5 -139 34 -23 c62 -42 78 -35 190 84
124 131 131 130 131 -18 0 -60 4 -100 11 -105 8 -4 10 22 8 90 -2 53 -1 96 2
96 15 0 89 -83 89 -100 0 -16 -175 -189 -201 -198 -5 -2 -9 10 -9 27 0 59 -69
93 -111 55 -16 -14 -22 -13 -71 13 -45 23 -65 28 -133 28 -90 0 -146 -20 -207
-74 l-36 -31 -6 30 c-5 29 -7 30 -61 30 -48 0 -57 -3 -65 -22 l-9 -23 -7 23
c-5 19 -13 22 -55 22 -27 0 -52 0 -56 0 -5 0 -9 -16 -11 -35 l-3 -35 -50 27
c-27 16 -49 33 -49 38 0 14 59 100 102 149 l34 39 119 -82 c66 -44 126 -81
133 -81 7 0 33 12 58 26 52 31 52 31 25 189 -12 67 -16 114 -10 120 12 12 91
23 154 21 l50 -1 5 -140z m184 83 c31 -13 56 -29 56 -35 0 -7 5 -12 11 -10 6
1 13 -3 16 -10 3 -8 -5 -9 -29 -3 -46 11 -101 31 -115 42 -6 5 -13 5 -17 0 -3
-5 14 -15 37 -22 58 -17 117 -48 117 -61 0 -6 -6 -9 -12 -6 -103 43 -143 57
-174 61 -48 6 -69 26 -28 27 27 0 28 1 7 9 -24 10 -29 21 -15 34 11 12 84 -1
146 -26z m215 -25 l6 29 39 -31 c99 -79 206 -229 237 -334 32 -107 52 -328 30
-341 -5 -3 -22 -3 -37 0 l-29 6 0 101 c0 81 -5 117 -24 172 -41 121 -90 204
-173 290 -56 58 -78 87 -78 106 0 39 14 45 19 7 l4 -33 6 28z m-659 7 c0 -6
-19 -19 -42 -29 -24 -10 -67 -35 -97 -55 -58 -39 -71 -43 -71 -22 0 22 154
115 193 116 9 0 17 -5 17 -10z m35 -40 c-3 -5 -12 -10 -18 -10 -16 0 -116 -52
-164 -85 -47 -32 -58 -21 -15 15 64 53 220 117 197 80z m363 -13 c29 -10 37
-22 30 -44 -2 -5 -5 -7 -8 -6 -42 14 -52 8 -12 -7 28 -12 52 -26 52 -31 0 -13
-12 -11 -53 6 -51 21 -70 18 -24 -4 l37 -17 -23 -27 c-49 -57 -96 -23 -101 72
-4 84 7 90 102 58z m-368 -34 c1 -5 3 -34 6 -65 6 -54 5 -57 -22 -70 -38 -19
-41 -18 -96 17 -54 34 -66 53 -40 62 9 4 35 19 57 35 37 25 95 38 95 21z m745
-175 c4 -18 10 -35 14 -38 9 -7 33 -71 39 -105 4 -27 3 -29 -12 -16 -14 11
-21 11 -49 -2 -31 -15 -33 -15 -58 9 -15 14 -43 31 -64 38 l-36 13 67 66 c37
37 73 67 80 67 7 0 16 -15 19 -32z m-510 -32 c32 -2 95 -37 106 -59 6 -10 7
-17 2 -14 -4 3 -25 -3 -47 -14 -31 -15 -40 -16 -51 -5 -16 16 -213 15 -262 -2
-29 -9 -31 -9 -21 7 9 15 32 32 95 68 27 16 122 33 143 25 8 -2 24 -5 35 -6z
m225 -26 c25 -47 -20 -85 -65 -56 -29 19 -32 38 -9 60 22 22 61 20 74 -4z
m-684 -40 c9 -56 20 -58 33 -5 11 44 12 45 51 45 21 0 41 -4 44 -8 3 -4 12
-60 20 -123 9 -63 18 -130 22 -149 l6 -35 -45 0 c-42 0 -46 2 -51 29 -3 16 -6
46 -6 67 0 56 -17 48 -25 -11 -6 -44 -10 -50 -31 -50 -19 0 -25 8 -34 43 -6
23 -12 47 -14 52 -2 6 -6 -20 -10 -57 l-7 -66 -42 -5 c-23 -2 -45 -1 -49 2 -3
3 5 69 18 146 13 77 24 146 24 153 0 8 16 12 45 12 45 0 45 0 51 -40z m-201
-32 c-4 -13 -12 -47 -18 -75 -6 -29 -17 -55 -24 -57 -14 -6 -18 20 -4 28 4 3
11 28 14 56 7 55 13 70 29 70 6 0 7 -9 3 -22z m43 -15 c8 -19 10 -21 6 -5 -3
12 -2 22 3 22 5 0 10 -11 11 -25 1 -14 -2 -25 -6 -25 -4 0 -8 -26 -10 -58 -5
-98 -7 -112 -15 -112 -4 0 2 -10 13 -22 21 -23 13 -35 -17 -24 -13 5 -14 17
-10 64 3 31 8 84 11 117 l6 60 -14 -40 c-8 -22 -15 -79 -15 -127 -1 -86 -14
-123 -27 -72 -13 52 24 274 45 274 4 0 12 -12 19 -27z m476 7 c65 -24 89 -142
40 -199 -48 -57 -138 -50 -171 13 -21 39 -20 117 1 147 31 44 79 59 130 39z
m147 -34 c19 -71 21 -72 34 -25 7 26 15 50 18 55 3 5 43 8 89 6 l83 -3 0 -115
0 -114 -42 0 -43 0 -1 108 c0 118 -1 118 -49 -20 l-31 -86 -41 -4 c-22 -2 -42
1 -43 7 -5 14 -64 197 -71 215 -4 12 5 15 41 16 45 1 45 1 56 -40z m415 13
c47 -44 24 -100 -51 -120 -28 -8 -35 -13 -26 -22 9 -9 19 -8 43 6 31 18 32 18
49 -4 21 -28 17 -40 -22 -63 -65 -38 -149 -1 -169 75 -31 113 95 204 176 128z
m198 -146 l1 -108 -40 2 c-22 1 -71 4 -109 8 l-68 7 31 19 c41 25 48 45 28 78
-10 18 -13 32 -7 41 6 8 10 24 10 36 0 18 9 22 68 30 37 5 71 6 76 2 5 -4 9
-56 10 -115z m222 11 c7 -48 1 -130 -10 -142 -4 -3 -11 -1 -15 6 -4 7 -15 10
-24 6 -32 -12 -45 13 -44 83 2 64 3 67 32 79 47 20 53 17 61 -32z m-1538 -43
c0 -28 -3 -53 -9 -56 -5 -4 -9 19 -9 55 0 73 16 73 18 1z m-174 -17 c3 -9 6
-28 6 -44 0 -24 -5 -28 -37 -33 -42 -7 -63 5 -63 38 0 44 10 55 50 55 25 0 40
-5 44 -16z m430 -11 c9 4 16 2 16 -4 0 -6 7 -9 15 -5 8 3 15 2 15 -3 0 -10
-59 -21 -76 -14 -7 2 -9 13 -7 24 4 15 8 17 13 8 5 -6 15 -9 24 -6z m796 -59
c241 -15 674 -61 737 -79 8 -3 3 -26 -15 -76 l-25 -73 18 -70 c10 -39 20 -77
23 -85 4 -11 -4 -12 -39 -7 -48 7 -256 28 -474 48 -93 9 -303 13 -620 13 -489
0 -627 -7 -1018 -51 -76 -9 -140 -14 -142 -12 -2 2 5 39 16 82 11 42 17 87 14
99 -5 20 -5 20 6 4 8 -15 7 -34 -5 -84 -9 -36 -15 -67 -13 -70 3 -2 12 27 21
64 16 67 16 69 -8 138 -13 39 -25 62 -25 53 -1 -9 4 -29 9 -44 6 -15 9 -29 6
-31 -2 -2 -11 17 -20 43 -10 30 -12 50 -6 54 9 5 210 34 426 60 276 33 811 44
1134 24z m-345 -442 c-4 -53 -9 -103 -11 -111 -3 -11 -22 -12 -96 -6 -50 4
-97 9 -104 12 -15 6 -17 39 -8 131 l7 61 41 3 c22 2 72 4 109 5 l68 3 -6 -98z
m366 37 c-30 -27 -57 -49 -61 -49 -8 0 -80 97 -75 101 2 2 45 2 97 1 l93 -4
-54 -49z m-827 34 c5 -12 9 -14 18 -5 8 8 48 12 106 12 l94 0 -7 -37 c-8 -40
-13 -70 -14 -90 -2 -21 -36 -15 -98 15 -77 38 -103 55 -102 67 4 33 -1 38 -20
21 -16 -15 -22 -15 -40 -4 -27 17 -27 26 2 31 44 8 55 7 61 -10z m666 2 c5 -3
19 -24 29 -46 19 -39 19 -39 -2 -54 -12 -8 -27 -15 -35 -15 -7 0 -23 -6 -35
-14 -12 -8 -43 -18 -69 -21 -46 -7 -48 -6 -58 21 -7 18 -7 29 -1 33 6 4 6 12
1 21 -11 16 -13 73 -4 82 7 8 160 2 174 -7z m-764 -16 c10 -12 44 -38 74 -59
180 -123 362 -163 550 -121 115 26 255 92 327 156 49 43 56 46 100 43 l47 -3
-62 -59 c-80 -77 -134 -115 -220 -154 l-69 -32 27 -77 c15 -42 32 -79 38 -81
30 -10 312 165 312 194 0 5 -23 32 -52 61 l-51 52 24 20 24 20 45 -45 c25 -24
53 -44 62 -44 15 0 42 28 105 109 11 13 27 22 37 20 15 -3 11 -14 -29 -69
-378 -516 -1111 -556 -1531 -84 -117 132 -131 154 -95 154 10 0 30 -17 45 -39
41 -58 53 -59 108 -4 l48 47 23 -23 22 -23 -52 -47 c-29 -26 -53 -52 -53 -58
0 -17 100 -103 119 -103 10 0 39 28 66 62 l48 62 -24 19 c-55 43 -129 112
-129 119 0 4 22 8 48 8 37 0 54 -5 68 -21z m1207 1 c43 0 44 -11 6 -52 -34
-36 -51 -35 -83 3 -22 25 -24 34 -14 46 6 8 20 12 32 9 12 -3 38 -6 59 -6z
m-1408 -9 c3 -5 -5 -17 -17 -26 -21 -14 -24 -14 -35 2 -10 13 -10 18 0 25 17
11 45 10 52 -1z m1585 -5 c0 -8 -26 -50 -59 -93 -398 -533 -1140 -579 -1589
-98 -62 66 -142 173 -142 189 0 3 6 6 14 6 8 0 36 -30 62 -67 140 -197 347
-341 580 -404 119 -33 345 -33 469 0 239 62 465 219 595 413 43 64 70 85 70
54z m-1422 -91 l23 -24 -26 -39 c-15 -22 -33 -39 -41 -38 -14 2 -64 52 -64 64
0 12 56 61 70 62 8 0 25 -11 38 -25z m1086 -56 c28 -29 28 -30 10 -47 -32 -29
-132 -92 -180 -114 -50 -22 -57 -19 -70 29 -9 35 -1 46 52 72 27 14 53 30 57
38 4 7 13 13 18 13 6 0 22 9 36 20 34 27 43 25 77 -11z"/>
<path d="M1334 1487 c-3 -9 -4 -28 -2 -44 2 -20 8 -28 23 -28 17 0 20 7 20 40
0 30 -4 41 -18 43 -9 2 -20 -3 -23 -11z"/>
<path d="M2000 1447 c0 -2 7 -18 16 -35 8 -18 13 -41 9 -52 -3 -11 -2 -20 3
-20 17 0 22 44 10 78 -7 17 -18 32 -25 32 -7 0 -13 -2 -13 -3z"/>
<path d="M1313 1273 c53 -2 141 -2 195 0 53 1 9 3 -98 3 -107 0 -151 -2 -97
-3z"/>
<path d="M1023 1263 c20 -2 54 -2 75 0 20 2 3 4 -38 4 -41 0 -58 -2 -37 -4z"/>
<path d="M1877 1263 c18 -2 50 -2 70 0 21 2 7 4 -32 4 -38 0 -55 -2 -38 -4z"/>
<path d="M888 1253 c18 -2 45 -2 60 0 15 2 0 4 -33 4 -33 0 -45 -2 -27 -4z"/>
<path d="M2018 1253 c18 -2 45 -2 60 0 15 2 0 4 -33 4 -33 0 -45 -2 -27 -4z"/>
<path d="M1180 1248 c0 -2 -1 -56 -3 -121 l-2 -117 28 0 c26 0 27 2 27 48 0
35 5 54 18 65 26 24 32 13 32 -55 0 -58 0 -59 27 -56 26 3 27 4 24 68 -1 35
-7 72 -12 82 -13 24 -56 23 -71 -2 -21 -33 -27 -23 -21 35 6 54 5 55 -21 55
-14 0 -26 -1 -26 -2z"/>
<path d="M1575 1135 l0 -115 28 0 c24 0 27 3 27 36 0 32 3 36 21 31 58 -15
124 57 100 110 -14 31 -67 53 -128 53 l-48 0 0 -115z m113 63 c18 -18 14 -56
-7 -68 -40 -21 -51 -13 -51 35 0 40 2 45 23 45 13 0 28 -5 35 -12z"/>
<path d="M2107 1118 c-3 -62 -5 -114 -3 -115 1 -1 13 -4 27 -5 21 -3 24 0 21
28 -2 18 3 36 12 43 13 11 18 7 31 -24 8 -21 15 -41 15 -45 0 -9 61 -22 68
-15 3 2 -12 32 -32 66 l-36 61 22 19 c13 10 27 18 31 19 5 0 5 5 2 10 -13 21
-54 10 -77 -20 -12 -16 -25 -30 -30 -30 -4 0 -5 25 -2 55 5 36 3 55 -4 55 -6
0 -17 2 -25 5 -11 5 -15 -15 -20 -107z"/>
<path d="M697 1214 c-4 -4 -7 -16 -7 -26 0 -14 6 -19 23 -16 14 2 22 10 22 23
0 20 -25 32 -38 19z"/>
<path d="M1074 1196 c-9 -14 -23 -26 -31 -26 -8 0 -13 -7 -11 -17 2 -10 10
-18 18 -18 11 0 16 -15 18 -57 2 -45 7 -60 22 -68 29 -15 60 4 60 37 0 21 -2
23 -15 13 -12 -10 -16 -9 -21 3 -10 27 0 72 16 72 15 0 30 13 30 28 0 4 -12 7
-26 7 -20 0 -25 4 -22 22 4 31 -18 33 -38 4z"/>
<path d="M2455 1209 c22 -4 54 -8 70 -7 22 0 19 3 -15 9 -60 10 -108 9 -55 -2z"/>
<path d="M1379 1161 c-28 -28 -31 -37 -26 -73 6 -48 21 -65 63 -74 38 -7 81
23 70 51 -6 17 -7 17 -25 0 -20 -17 -52 -18 -58 0 -2 6 16 19 39 30 65 30 63
73 -4 90 -22 6 -33 1 -59 -24z m61 -26 c0 -8 -9 -19 -20 -25 -17 -9 -20 -8
-20 8 0 10 3 22 7 25 12 12 33 7 33 -8z"/>
<path d="M1786 1164 c-23 -22 -20 -34 9 -34 14 0 25 5 25 10 0 16 37 11 44 -6
12 -31 7 -36 -28 -30 -51 10 -86 -7 -86 -42 0 -50 43 -68 88 -36 20 14 22 14
22 0 0 -10 9 -16 25 -16 24 0 25 2 25 69 0 50 -4 74 -16 85 -20 21 -88 21
-108 0z m69 -93 c10 -17 -34 -34 -51 -21 -7 7 -11 16 -8 21 7 12 51 11 59 0z"/>
<path d="M1940 1095 c0 -80 1 -83 25 -87 24 -5 25 -3 25 46 0 48 12 76 32 76
4 0 8 -7 8 -15 0 -22 38 -18 50 6 23 41 -34 67 -72 32 -16 -14 -18 -14 -18 -1
0 9 -11 18 -25 20 l-25 5 0 -82z"/>
<path d="M849 1139 l-29 -31 0 26 c0 21 -5 26 -26 26 -24 0 -26 -3 -20 -31 3
-17 6 -56 6 -85 0 -53 0 -54 30 -54 29 0 31 2 25 33 -7 37 22 102 45 102 11 0
16 -15 18 -62 3 -62 4 -63 31 -63 l28 0 -4 73 c-5 75 -18 97 -56 97 -10 0 -32
-14 -48 -31z"/>
<path d="M2586 1117 c-21 -55 -20 -79 4 -152 20 -61 20 -52 -1 41 -10 43 -9
60 5 100 20 60 15 69 -8 11z"/>
<path d="M694 1113 c3 -21 6 -59 6 -85 0 -45 2 -48 26 -48 25 0 26 2 20 38 -3
20 -6 58 -6 85 0 44 -2 47 -26 47 -25 0 -26 -2 -20 -37z"/>
<path d="M437 1084 c-4 -4 -7 -16 -7 -26 0 -14 6 -19 23 -16 14 2 22 10 22 23
0 20 -25 32 -38 19z"/>
<path d="M2486 1081 c-10 -16 6 -42 23 -39 9 2 17 13 19 26 3 16 -2 22 -17 22
-11 0 -22 -4 -25 -9z"/>
<path d="M1308 973 c105 -2 279 -2 385 0 105 1 19 2 -193 2 -212 0 -298 -1
-192 -2z"/>
<path d="M835 960 c-33 -4 1 -5 75 -2 74 2 137 6 139 8 7 6 -148 1 -214 -6z"/>
<path d="M1998 963 c18 -2 45 -2 60 0 15 2 0 4 -33 4 -33 0 -45 -2 -27 -4z"/>
<path d="M535 934 c-140 -16 -183 -26 -75 -17 159 13 305 31 250 31 -30 0
-109 -6 -175 -14z"/>
<path d="M2425 925 c55 -8 114 -14 130 -13 48 1 -46 15 -145 21 l-85 6 100
-14z"/>
<path d="M1016 673 l-47 -68 28 -22 c51 -41 262 -118 278 -101 3 3 12 35 20
73 7 37 16 69 19 72 3 4 18 2 34 -3 l29 -9 -12 -68 c-6 -37 -8 -73 -3 -80 10
-16 212 -15 291 2 66 14 68 20 38 116 -18 56 -21 60 -48 57 -225 -21 -340 -7
-482 59 -46 21 -87 39 -91 39 -4 0 -29 -30 -54 -67z m144 -13 c33 -16 68 -30
79 -30 20 0 33 -21 27 -42 -3 -7 -7 -26 -10 -41 -6 -26 -9 -27 -43 -21 -21 4
-70 22 -110 40 -56 26 -73 38 -73 54 0 11 4 20 8 20 5 0 14 11 20 25 15 32 30
31 102 -5z m496 -96 c11 -27 12 -40 4 -48 -17 -17 -127 -32 -195 -26 l-60 5
-3 36 c-4 48 10 57 93 62 39 1 87 4 108 5 35 2 39 -1 53 -34z"/>
<path d="M2060 2310 c0 -12 7 -20 16 -20 9 0 22 -7 29 -17 7 -10 17 -13 25 -8
10 6 7 13 -11 27 -47 37 -59 41 -59 18z"/>
<path d="M1298 2304 c6 -11 24 -32 41 -48 24 -23 34 -27 43 -18 9 9 8 12 -5
12 -9 0 -17 3 -17 8 0 4 -16 20 -36 36 -26 20 -33 23 -26 10z"/>
<path d="M2150 2271 c0 -22 35 -47 62 -43 9 2 19 -2 23 -8 3 -5 11 -10 16 -10
6 0 7 5 4 10 -3 6 1 10 9 10 9 0 13 -6 10 -14 -3 -7 3 -16 13 -19 10 -2 27 -8
38 -13 18 -7 19 -6 6 9 -8 10 -11 21 -7 24 4 4 12 1 17 -7 8 -12 9 -11 7 5 -3
16 -10 19 -35 17 -17 -2 -34 2 -38 7 -3 6 -20 11 -37 11 -16 0 -43 9 -59 21
l-29 20 0 -20z"/>
<path d="M1228 2256 c-39 -14 -36 -34 5 -33 34 1 87 -28 87 -47 0 -6 -21 -18
-47 -25 -27 -8 -77 -25 -112 -39 l-65 -25 -18 23 c-10 12 -18 26 -18 31 0 11
74 49 94 49 18 0 40 36 31 50 -4 6 -12 6 -23 0 -9 -6 -47 -23 -84 -40 -38 -16
-68 -35 -68 -43 0 -12 45 -83 70 -110 4 -5 27 1 51 13 115 59 301 93 362 67
47 -20 101 -37 119 -37 9 0 56 -13 105 -30 100 -34 132 -38 113 -15 -6 7 -32
17 -56 21 -24 3 -44 10 -44 14 0 4 -20 10 -45 13 -24 4 -53 11 -62 16 -10 5
-43 16 -73 26 -30 9 -76 28 -101 41 -52 27 -59 28 -59 14 0 -6 10 -14 22 -19
21 -8 21 -8 -6 -15 -34 -8 -46 -1 -39 24 4 13 -1 22 -13 26 -11 4 -32 17 -49
29 -44 32 -47 33 -77 21z"/>
<path d="M2203 2159 c-8 -8 -6 -16 6 -28 18 -18 100 -46 109 -37 3 3 -2 6 -11
6 -9 0 -17 5 -17 10 0 6 -6 10 -14 10 -7 0 -21 11 -30 25 -18 28 -27 30 -43
14z"/>
<path d="M883 2082 c-62 -50 -183 -180 -183 -198 0 -8 25 -30 55 -49 l55 -36
-17 -27 c-9 -15 -18 -28 -19 -30 -1 -2 -27 13 -58 34 -45 30 -58 34 -70 24
-38 -30 -112 -288 -90 -309 5 -5 40 -11 79 -13 l69 -3 7 40 c25 145 112 298
231 410 58 55 79 80 72 89 -5 7 -21 31 -36 54 -15 22 -31 43 -37 46 -5 3 -31
-11 -58 -32z m73 -47 c17 -25 16 -26 -67 -109 l-84 -84 -26 19 c-19 13 -26 25
-22 39 3 11 9 20 14 20 5 0 9 4 9 10 0 18 126 129 147 130 7 0 20 -11 29 -25z
m-251 -297 c14 -6 25 -17 25 -24 0 -7 -14 -56 -32 -108 l-32 -95 -33 3 c-18 1
-36 5 -39 9 -17 16 53 227 75 227 6 0 22 -5 36 -12z"/>
<path d="M2620 2095 c0 -2 24 -19 54 -39 46 -30 54 -41 60 -76 3 -22 13 -60
21 -85 15 -42 15 -45 -5 -65 -11 -11 -20 -30 -20 -41 0 -18 -3 -19 -15 -9 -17
14 -39 4 -31 -15 10 -27 -24 -23 -54 5 l-32 30 27 10 c34 13 35 13 35 -5 0 -8
5 -15 11 -15 5 0 7 5 4 10 -3 6 3 10 14 10 26 0 34 15 16 30 -12 10 -15 9 -16
-6 0 -11 -3 -14 -5 -8 -3 7 -14 10 -25 7 -11 -3 -28 2 -39 12 -19 17 -20 17
-21 -1 -6 -78 -4 -89 19 -92 23 -4 29 -17 12 -27 -14 -9 -68 37 -62 53 3 9 -4
11 -22 8 -21 -4 -27 0 -32 20 -3 13 -10 24 -15 24 -15 0 -10 -23 14 -64 17
-30 34 -43 74 -58 l53 -19 32 22 c103 71 116 87 120 142 3 43 0 70 -17 127
-10 34 -27 60 -39 60 -10 0 -13 6 -10 15 5 11 -1 15 -19 15 -14 0 -28 4 -31 9
-5 8 -56 22 -56 16z"/>
<path d="M1990 2070 c0 -5 14 -10 31 -10 17 0 28 4 24 10 -3 6 -17 10 -31 10
-13 0 -24 -4 -24 -10z"/>
<path d="M2580 1955 c0 -28 15 -34 24 -9 10 25 7 34 -9 34 -9 0 -15 -9 -15
-25z"/>
<path d="M2127 1963 c-16 -4 -15 -7 8 -19 15 -8 31 -11 36 -8 5 3 9 0 9 -7 0
-7 6 -4 14 6 8 11 12 24 9 28 -3 5 -9 3 -14 -4 -6 -11 -11 -11 -21 -1 -6 6
-14 11 -17 11 -4 -1 -14 -3 -24 -6z"/>
<path d="M2510 1704 c1 -18 38 -149 39 -134 0 20 -26 130 -33 138 -3 3 -6 1
-6 -4z"/>
<path d="M2661 1249 c30 -9 36 -14 33 -32 -4 -22 -4 -22 7 1 15 28 11 32 -37
37 l-39 5 36 -11z"/>
<path d="M2140 534 c-30 -25 -83 -62 -117 -82 -34 -20 -61 -38 -59 -40 7 -7
142 80 191 123 65 57 56 56 -15 -1z"/>
<path d="M1905 393 c-16 -9 -68 -29 -115 -44 -47 -16 -78 -28 -69 -29 36 0
229 71 229 85 0 9 -14 5 -45 -12z"/>
</g>
</svg>
